<?xml version="1.0" encoding="UTF-8" standalone="no"?>
<!-- Created with Inkscape (http://www.inkscape.org/) -->

<svg
   xmlns:dc="http://purl.org/dc/elements/1.1/"
   xmlns:cc="http://creativecommons.org/ns#"
   xmlns:rdf="http://www.w3.org/1999/02/22-rdf-syntax-ns#"
   xmlns:svg="http://www.w3.org/2000/svg"
   xmlns="http://www.w3.org/2000/svg"
   xmlns:sodipodi="http://sodipodi.sourceforge.net/DTD/sodipodi-0.dtd"
   xmlns:inkscape="http://www.inkscape.org/namespaces/inkscape"
   width="744.09448"
   height="744.09448"
   id="svg2"
   version="1.1"
   inkscape:version="0.48+devel r12340 custom"
   sodipodi:docname="gridmaps-design.svg"
   inkscape:export-filename="/home/cjn/src/docs/diagrams/gridmaps-design.png"
   inkscape:export-xdpi="90"
   inkscape:export-ydpi="90">
  <defs
     id="defs4">
    <marker
       inkscape:isstock="true"
       style="overflow:visible"
       id="marker2527"
       refX="0"
       refY="0"
       orient="auto"
       inkscape:stockid="Arrow1Lend">
      <path
         inkscape:connector-curvature="0"
         transform="matrix(-0.8,0,0,-0.8,-10,0)"
         style="fill:#000000;fill-opacity:1;fill-rule:evenodd;stroke:#000000;stroke-width:1pt;stroke-opacity:1"
         d="M 0,0 5,-5 -12.5,0 5,5 0,0 Z"
         id="path2529" />
    </marker>
    <marker
       inkscape:stockid="Arrow1Lend"
       orient="auto"
       refY="0"
       refX="0"
       id="marker2107"
       style="overflow:visible"
       inkscape:isstock="true"
       inkscape:collect="always">
      <path
         id="path2109"
         d="M 0,0 5,-5 -12.5,0 5,5 0,0 Z"
         style="fill:#000000;fill-opacity:1;fill-rule:evenodd;stroke:#000000;stroke-width:1pt;stroke-opacity:1"
         transform="matrix(-0.8,0,0,-0.8,-10,0)"
         inkscape:connector-curvature="0" />
    </marker>
    <marker
       inkscape:isstock="true"
       style="overflow:visible"
       id="marker2025"
       refX="0"
       refY="0"
       orient="auto"
       inkscape:stockid="Arrow2Lend">
      <path
         transform="matrix(-1.1,0,0,-1.1,-1.1,0)"
         d="M 8.7185878,4.0337352 -2.2072895,0.01601326 8.7185884,-4.0017078 C 6.97309,-1.6296469 6.9831476,1.6157441 8.7185878,4.0337352 Z"
         style="fill:#000000;fill-opacity:1;fill-rule:evenodd;stroke:#000000;stroke-width:0.625;stroke-linejoin:round;stroke-opacity:1"
         id="path2027"
         inkscape:connector-curvature="0" />
    </marker>
    <marker
       inkscape:stockid="Arrow2Lend"
       orient="auto"
       refY="0"
       refX="0"
       id="marker1863"
       style="overflow:visible"
       inkscape:isstock="true"
       inkscape:collect="always">
      <path
         id="path1865"
         style="fill:#000000;fill-opacity:1;fill-rule:evenodd;stroke:#000000;stroke-width:0.625;stroke-linejoin:round;stroke-opacity:1"
         d="M 8.7185878,4.0337352 -2.2072895,0.01601326 8.7185884,-4.0017078 C 6.97309,-1.6296469 6.9831476,1.6157441 8.7185878,4.0337352 Z"
         transform="matrix(-1.1,0,0,-1.1,-1.1,0)"
         inkscape:connector-curvature="0" />
    </marker>
    <marker
       inkscape:isstock="true"
       style="overflow:visible"
       id="marker1815"
       refX="0"
       refY="0"
       orient="auto"
       inkscape:stockid="Arrow2Lend"
       inkscape:collect="always">
      <path
         transform="matrix(-1.1,0,0,-1.1,-1.1,0)"
         d="M 8.7185878,4.0337352 -2.2072895,0.01601326 8.7185884,-4.0017078 C 6.97309,-1.6296469 6.9831476,1.6157441 8.7185878,4.0337352 Z"
         style="fill:#000000;fill-opacity:1;fill-rule:evenodd;stroke:#000000;stroke-width:0.625;stroke-linejoin:round;stroke-opacity:1"
         id="path1817"
         inkscape:connector-curvature="0" />
    </marker>
    <marker
       inkscape:stockid="Arrow2Lend"
       orient="auto"
       refY="0"
       refX="0"
       id="Arrow2Lend"
       style="overflow:visible"
       inkscape:isstock="true"
       inkscape:collect="always">
      <path
         id="path958"
         style="fill:#000000;fill-opacity:1;fill-rule:evenodd;stroke:#000000;stroke-width:0.625;stroke-linejoin:round;stroke-opacity:1"
         d="M 8.7185878,4.0337352 -2.2072895,0.01601326 8.7185884,-4.0017078 C 6.97309,-1.6296469 6.9831476,1.6157441 8.7185878,4.0337352 Z"
         transform="matrix(-1.1,0,0,-1.1,-1.1,0)"
         inkscape:connector-curvature="0" />
    </marker>
    <marker
       inkscape:stockid="Arrow1Lstart"
       orient="auto"
       refY="0"
       refX="0"
       id="Arrow1Lstart"
       style="overflow:visible"
       inkscape:isstock="true">
      <path
         id="path937"
         d="M 0,0 5,-5 -12.5,0 5,5 0,0 Z"
         style="fill:#000000;fill-opacity:1;fill-rule:evenodd;stroke:#000000;stroke-width:1pt;stroke-opacity:1"
         transform="matrix(0.8,0,0,0.8,10,0)"
         inkscape:connector-curvature="0" />
    </marker>
    <marker
       inkscape:stockid="Arrow1Lend"
       orient="auto"
       refY="0"
       refX="0"
       id="Arrow1Lend"
       style="overflow:visible"
       inkscape:isstock="true">
      <path
         id="path940"
         d="M 0,0 5,-5 -12.5,0 5,5 0,0 Z"
         style="fill:#000000;fill-opacity:1;fill-rule:evenodd;stroke:#000000;stroke-width:1pt;stroke-opacity:1"
         transform="matrix(-0.8,0,0,-0.8,-10,0)"
         inkscape:connector-curvature="0" />
    </marker>
  </defs>
  <sodipodi:namedview
     id="base"
     pagecolor="#ffffff"
     bordercolor="#666666"
     borderopacity="1.0"
     inkscape:pageopacity="0.0"
     inkscape:pageshadow="2"
     inkscape:zoom="1"
     inkscape:cx="90.108788"
     inkscape:cy="387.36347"
     inkscape:document-units="px"
     inkscape:current-layer="layer1"
     showgrid="false"
     inkscape:window-width="2558"
     inkscape:window-height="1422"
     inkscape:window-x="0"
     inkscape:window-y="16"
     inkscape:window-maximized="0"
     units="mm" />
  <metadata
     id="metadata7">
    <rdf:RDF>
      <cc:Work
         rdf:about="">
        <dc:format>image/svg+xml</dc:format>
        <dc:type
           rdf:resource="http://purl.org/dc/dcmitype/StillImage" />
        <dc:title />
      </cc:Work>
    </rdf:RDF>
  </metadata>
  <g
     inkscape:label="Layer 1"
     inkscape:groupmode="layer"
     id="layer1"
     transform="translate(0,-308.26772)">
    <path
       style="fill:#dcdce6;fill-opacity:1;stroke:#787878;stroke-width:2.5;stroke-miterlimit:4;stroke-opacity:1;stroke-dasharray:none"
       d="m 367.25241,389.21421 c -18.1772,0 -34.03387,5.97291 -42.5908,14.875 -7.66872,-2.9874 -16.78907,-4.70406 -26.5716,-4.70406 -18.53131,0 -34.63679,6.22491 -43.06759,15.41533 -8.64196,-4.53507 -19.88797,-7.27858 -32.19737,-7.27858 -27.24369,0 -49.32904,13.43338 -49.32904,30.00428 0,5.53283 2.47587,10.71101 6.77001,15.16105 -23.44398,2.3225 -41.35121,14.67489 -41.35121,29.59107 0,7.84765 4.95468,14.99518 13.06327,20.34188 -8.10731,5.34659 -13.06327,12.49495 -13.06327,20.34188 0,14.82902 17.69596,27.13382 40.93804,29.5593 2.57186,15.10085 23.56781,26.88942 49.07476,26.88942 19.47909,0 36.32102,-6.87419 44.33895,-16.84562 8.46337,4.15285 19.2053,6.6747 30.92601,6.6747 9.80839,0 18.95389,-1.73392 26.63514,-4.73585 8.91202,7.78265 23.71796,12.87261 40.49306,12.87261 19.2519,0 35.92589,-6.71295 44.0529,-16.49603 9.04538,6.36287 22.39995,10.39343 37.31462,10.39343 8.826,0 17.11546,-1.40798 24.28312,-3.87766 9.03173,6.12876 22.14603,9.98026 36.74252,9.98026 27.24369,0 49.32908,-13.4334 49.32908,-30.00428 0,-3.77041 -1.15461,-7.38701 -3.24198,-10.71129 26.62566,-0.43088 47.9941,-13.67349 47.9941,-29.97247 0,-6.90919 -3.84615,-13.26748 -10.29808,-18.33949 10.07106,-5.49336 16.40064,-13.46857 16.40064,-22.34427 0,-16.57091 -22.08535,-30.00428 -49.32904,-30.00428 -3.31683,0 -6.56084,0.19247 -9.69417,0.57211 0.0215,-0.36344 0.0316,-0.71405 0.0316,-1.08066 0,-16.5709 -22.08539,-30.00428 -49.32908,-30.00428 -17.27843,0 -32.47702,5.39166 -41.28763,13.57185 -9.00123,-5.84737 -21.80269,-9.50347 -36.01149,-9.50347 -4.75818,0 -9.34568,0.41134 -13.69899,1.17602 C 408.56535,398.28905 389.65615,389.21421 367.25241,389.21421 Z"
       id="path6471"
       inkscape:connector-curvature="0" />
    <g
       id="g34"
       transform="translate(0,360)">
      <rect
         ry="3.923996"
         rx="3.4240112"
         y="67.771515"
         x="206.511"
         height="110"
         width="108.00001"
         id="rect6523"
         style="fill:#f0f0f0;fill-opacity:1;stroke:#3c3c3c;stroke-width:1;stroke-linejoin:miter;stroke-opacity:1" />
      <text
         sodipodi:linespacing="125%"
         id="text7590"
         y="88.341774"
         x="226.49506"
         style="font-size:15px;font-style:normal;font-variant:normal;font-weight:bold;font-stretch:normal;text-align:start;line-height:125%;letter-spacing:0px;word-spacing:0px;writing-mode:lr-tb;text-anchor:start;fill:#323232;fill-opacity:1;stroke:none;font-family:sans-serif;-inkscape-font-specification:'sans-serif, Bold'"
         xml:space="preserve"><tspan
           y="88.341774"
           x="226.49506"
           id="tspan7592"
           sodipodi:role="line">formhub</tspan></text>
    </g>
    <rect
       ry="3.9176865"
       rx="4.7499638"
       y="427.85995"
       x="382.5994"
       height="109.82313"
       width="149.82314"
       id="rect7594"
       style="fill:#f0f0f0;fill-opacity:1;stroke:#3c3c3c;stroke-width:1.17686903;stroke-linejoin:miter;stroke-opacity:1" />
    <text
       xml:space="preserve"
       style="font-size:16.92325401px;font-style:normal;font-weight:normal;line-height:125%;letter-spacing:0px;word-spacing:0px;fill:#000000;fill-opacity:1;stroke:none;font-family:sans-serif"
       x="393.5015"
       y="449.36697"
       id="text22"
       sodipodi:linespacing="125%"><tspan
         sodipodi:role="line"
         id="tspan24"
         x="393.5015"
         y="449.36697">OpenStreetMap</tspan></text>
    <text
       xml:space="preserve"
       style="font-size:16.55405617px;font-style:normal;font-weight:normal;line-height:125%;letter-spacing:0px;word-spacing:0px;fill:#000000;fill-opacity:1;stroke:none;font-family:sans-serif"
       x="401.12268"
       y="469.33099"
       id="text26"
       sodipodi:linespacing="125%"><tspan
         sodipodi:role="line"
         id="tspan28"
         x="401.12268"
         y="469.33099">The Rails Port</tspan></text>
    <rect
       style="fill:#dcdce6;fill-opacity:1;fill-rule:evenodd;stroke:#000000;stroke-width:1.15695453px;stroke-linecap:butt;stroke-linejoin:miter;stroke-opacity:1"
       id="rect858"
       width="273.46036"
       height="255.87042"
       x="73.375473"
       y="644.64093"
       rx="5.6564779"
       ry="4.4035859" />
    <rect
       ry="4.2318749"
       rx="5.6569481"
       y="626.62958"
       x="57.364105"
       height="245.89316"
       width="273.48309"
       id="rect856"
       style="fill:#dcdce6;fill-opacity:1;fill-rule:evenodd;stroke:#000000;stroke-width:1.1342206px;stroke-linecap:butt;stroke-linejoin:miter;stroke-opacity:1" />
    <rect
       style="fill:#dcdce6;fill-opacity:1;fill-rule:evenodd;stroke:#000000;stroke-width:1.12268031px;stroke-linecap:butt;stroke-linejoin:miter;stroke-opacity:1"
       id="rect54"
       width="273.49463"
       height="246.90469"
       x="41.358337"
       y="600.62378"
       rx="5.657187"
       ry="4.2492838" />
    <text
       xml:space="preserve"
       style="font-size:20.26401138px;font-style:normal;font-weight:normal;line-height:125%;letter-spacing:0px;word-spacing:0px;fill:#000000;fill-opacity:1;stroke:none;font-family:sans-serif"
       x="77.639091"
       y="899.33838"
       id="text860"
       sodipodi:linespacing="125%"
       transform="scale(1.0039657,0.99604997)"><tspan
         sodipodi:role="line"
         id="tspan862"
         x="77.639091"
         y="899.33838">User...</tspan></text>
    <text
       xml:space="preserve"
       style="font-size:19.75577545px;font-style:normal;font-weight:normal;line-height:125%;letter-spacing:0px;word-spacing:0px;fill:#000000;fill-opacity:1;stroke:none;font-family:sans-serif"
       x="64.156761"
       y="865.4455"
       id="text864"
       sodipodi:linespacing="125%"
       transform="scale(0.99614898,1.0038659)"><tspan
         sodipodi:role="line"
         id="tspan866"
         x="64.156761"
         y="865.4455">User 2</tspan></text>
    <text
       xml:space="preserve"
       style="font-size:19.90474892px;font-style:normal;font-weight:normal;line-height:125%;letter-spacing:0px;word-spacing:0px;fill:#000000;fill-opacity:1;stroke:none;font-family:sans-serif"
       x="51.281788"
       y="832.29437"
       id="text868"
       sodipodi:linespacing="125%"
       transform="scale(0.98616625,1.0140278)"><tspan
         sodipodi:role="line"
         id="tspan870"
         x="51.281788"
         y="832.29437">User 1</tspan></text>
    <rect
       style="fill:#ffffff;fill-opacity:1;stroke:#000000;stroke-width:5;stroke-miterlimit:4;stroke-opacity:1;stroke-dasharray:none"
       id="rect872"
       width="52"
       height="81"
       x="65.638428"
       y="639.87079"
       rx="5.6569481"
       ry="4.2318749" />
    <text
       xml:space="preserve"
       style="font-size:20.89450073px;font-style:normal;font-weight:normal;line-height:125%;letter-spacing:0px;word-spacing:0px;fill:#000000;fill-opacity:1;stroke:none;font-family:sans-serif"
       x="53.012444"
       y="633.10291"
       id="text874"
       sodipodi:linespacing="125%"><tspan
         sodipodi:role="line"
         id="tspan876"
         x="53.012444"
         y="633.10291">Android</tspan></text>
    <rect
       style="fill:#ffffff;fill-opacity:1;stroke:#000000;stroke-width:1;stroke-miterlimit:4;stroke-opacity:1;stroke-dasharray:none"
       id="rect878"
       width="119"
       height="99"
       x="183.57751"
       y="618.73285"
       rx="5.1782832"
       ry="3.774374" />
    <g
       id="g1243"
       transform="translate(0,362)">
      <g
         transform="translate(0,4)"
         id="g1229">
        <rect
           ry="3.774374"
           rx="5.1782832"
           y="378.73285"
           x="183.57751"
           height="99"
           width="119"
           id="rect882"
           style="fill:#ffffff;fill-opacity:1;stroke:#000000;stroke-width:1;stroke-miterlimit:4;stroke-opacity:1;stroke-dasharray:none" />
        <path
           style="fill:none;stroke:#5353e2;stroke-width:1px;stroke-linecap:butt;stroke-linejoin:miter;stroke-opacity:1"
           d="m 190.7356,459.3291 c 5.73918,-0.33956 1.19722,-3.39445 2,-5 0.21081,-0.42164 0.78918,-0.57836 1,-1 0.29814,-0.59628 -0.47141,-1.52859 0,-2 0.2357,-0.2357 0.76429,0.2357 1,0 0.2357,-0.2357 -0.14908,-0.70186 0,-1 0.21081,-0.42164 0.78918,-0.57836 1,-1 0.14907,-0.29814 -0.23571,-0.7643 0,-1 0.2357,-0.2357 0.76429,0.2357 1,0 0.0453,-0.0453 0,-4.5285 0,-5 0,-0.33333 -0.23571,-0.7643 0,-1 0.5,-0.5 2.5,0.5 3,0 0.2357,-0.2357 -0.14908,-0.70186 0,-1 0.21081,-0.42164 0.78918,-0.57836 1,-1 0.4,-0.8 -0.4,-2.2 0,-3 0.21081,-0.42164 0.78918,-0.57836 1,-1 0.14907,-0.29814 -0.23571,-0.7643 0,-1 0.2357,-0.2357 1,-0.33333 1,0 0,0.33333 -1.33334,0 -1,0 0.66666,0 1.38101,-0.24759 2,0 4.54105,1.81642 1.55664,1.70443 5,4 1.33333,0.88889 1,-1.22222 1,1 0,0.33333 0,0.66667 0,1 0,0.33333 0.2357,0.7643 0,1 -0.23571,0.2357 -0.66667,0 -1,0 -0.33334,0 -0.66667,0 -1,0 -0.33334,0 -0.7643,-0.2357 -1,0 -0.23571,0.2357 0.14907,0.70186 0,1 -0.21082,0.42164 -0.85093,0.55279 -1,1 -0.31623,0.94868 0,2 0,3 0,0.33333 0,0.66667 0,1 0,0.33333 0.2357,1.2357 0,1 -2.52591,-2.5259 -0.38427,-1.15278 -1,-3 -0.47141,-1.41421 -1.70765,-2.53824 -2,-4 -0.19612,-0.98058 0,-2 0,-3 0,-0.33333 0,-0.66667 0,-1 0,-0.33333 -0.14908,-0.70186 0,-1 0.21081,-0.42164 0.78918,-0.57836 1,-1 0.14907,-0.29814 -0.23571,-0.7643 0,-1 0.2357,-0.2357 0.70185,0.14907 1,0 0.42163,-0.21082 0.57836,-0.78918 1,-1 0.39649,-0.19824 2.79556,0.20444 3,0 0.2357,-0.2357 -0.23571,-0.7643 0,-1 0.2357,-0.2357 0.76429,0.2357 1,0 0.2357,-0.2357 -0.14908,-0.70186 0,-1 0.42163,-0.84327 1.57836,-1.15672 2,-2 0.14907,-0.29814 -0.14908,-0.70186 0,-1 0.13275,-0.26551 2.73448,-2.86724 3,-3 0.29814,-0.14907 0.66666,0 1,0 2.15791,0 1.44509,0.83382 3,2 0.96148,0.72111 1.92503,1.46252 3,2 0.20524,0.10263 4.70303,0.099 5,0 0.7071,-0.2357 1.47295,-0.47295 2,-1 0.4714,-0.4714 -0.47141,-1.52859 0,-2 0.2357,-0.2357 0.76429,0.2357 1,0 0.47772,-0.47772 1.42649,-2.5735 1,-3 -0.23571,-0.2357 -1,0.33333 -1,0 0,-0.33333 1.2357,0.2357 1,0 -2.52591,-2.5259 -1.15279,-0.38426 -3,-1 -0.70711,-0.2357 -1.2929,-0.7643 -2,-1 -0.31623,-0.10541 -0.70186,0.14907 -1,0 -0.42164,-0.21082 -0.57837,-0.78918 -1,-1 -0.29815,-0.14907 -0.70186,0.14907 -1,0 -0.42164,-0.21082 -0.57837,-0.78918 -1,-1 -0.29815,-0.14907 -0.66667,0 -1,0 -1.37213,0 -3.23752,0.52498 -4,-1 -0.14908,-0.29814 -0.29815,-0.85093 0,-1 0.8,-0.4 2.2,0.4 3,0 1.07496,-0.53748 1.84439,-1.66982 3,-2 1.28203,-0.36629 2.69255,0.26149 4,0 0.46225,-0.0924 0.54267,-0.88567 1,-1 1.05242,-0.26311 4.56458,0 6,0 0.39531,0 4.57291,-0.21354 5,0 0.42163,0.21082 0.60776,0.73851 1,1 0.62017,0.41345 1.47295,0.47296 2,1 1.33333,1.33333 -2.12132,0.95956 1,2 0.63245,0.21082 1.36754,-0.21082 2,0 3.7071,1.2357 -1.21896,1 2,1 0.69554,0 4.63836,0.18082 5,0 0.42163,-0.21082 0.57836,-0.78918 1,-1 0.29814,-0.14907 1,-0.33333 1,0 0,0.33333 -1,0.33333 -1,0 0,-0.32244 1.72218,-1.44436 2,-2 0.14907,-0.29814 0,-0.66667 0,-1 0,-0.33333 0.2357,-0.7643 0,-1 -0.23571,-0.2357 -0.70186,0.14907 -1,0 -0.84328,-0.42164 -1.15673,-1.57836 -2,-2 -0.3965,-0.19824 -2.79557,0.20444 -3,0 -0.23571,-0.2357 0,-0.66667 0,-1 0,-0.66667 0.29814,-1.40371 0,-2 -0.14908,-0.29814 -0.7643,0.2357 -1,0 -0.23571,-0.2357 -0.23571,-0.7643 0,-1 0.2357,-0.2357 0.67661,0.0808 1,0 1.02262,-0.25565 1.97738,-0.74434 3,-1 0.32338,-0.0808 0.76429,0.2357 1,0 0.2357,-0.2357 -0.23571,-0.7643 0,-1 0.2357,-0.2357 0.70185,0.14907 1,0 0.42163,-0.21082 0.57836,-0.78918 1,-1 0.29814,-0.14907 0.66666,0 1,0 1.26545,0 3.13094,-0.30358 4,1 0.3698,0.5547 -0.21082,1.36755 0,2 0.21174,0.63523 3.02299,1.97701 2,3 -0.0322,0.0322 -2.75748,0 -3,0 -0.24253,0 -2.96784,-0.0322 -3,0 -0.47141,0.47141 0.66666,2 0,2 -0.33334,0 0,-0.66667 0,-1 0,-0.66667 0,-1.33333 0,-2 0,-0.33333 0.1054,-0.68377 0,-1 -0.23571,-0.70711 -0.33334,-1.66667 -1,-2 -0.42164,-0.21082 -0.5286,1 -1,1 -0.33334,0 0,-0.66667 0,-1 0,-0.33333 0,-0.66667 0,-1 0,-0.33333 -0.23571,-0.7643 0,-1 0.2357,-0.2357 0.66666,0 1,0 0.33333,0 0.66666,0 1,0 0.52292,0 3.73705,-0.13147 4,0 2.4714,1.2357 -0.34518,1 2,1 0.66666,0 1.33333,0 2,0 0.33333,0 0.70185,0.14907 1,0 0.42163,-0.21082 0.57836,-0.78918 1,-1 0.29814,-0.14907 0.76429,0.2357 1,0 0.2357,-0.2357 -0.23571,-0.7643 0,-1 0.2357,-0.2357 0.85092,-0.29814 1,0 4.39717,8.79436 -2.90724,-0.86085 3,8 1.18393,1.77591 2.6336,3.36033 4,5 0.30178,0.36214 0.78918,0.57836 1,1 0.27124,0.54249 -0.27363,3.72638 0,4 0.2357,0.2357 0.66666,0 1,0 0.33333,0 0.66666,0 1,0 2,0 4,0 6,0 0.66666,0 1.34628,0.13075 2,0 1.03362,-0.20672 1.97738,-0.74434 3,-1 0.32338,-0.0808 0.70185,0.14907 1,0 1.14641,-0.57321 1.391,-2.08651 2,-3 0.52297,-0.78446 1.57836,-1.15672 2,-2 0.14907,-0.29814 -0.14908,-0.70186 0,-1 0.21081,-0.42164 1,-0.52859 1,-1 0,-0.33333 -0.85093,0.29814 -1,0 -0.29815,-0.59628 0.21081,-1.36754 0,-2 -0.14908,-0.44721 -0.66667,-0.66667 -1,-1 -0.66667,-0.66667 -1.21554,-1.47702 -2,-2 -0.27735,-0.1849 -0.7643,0.2357 -1,0 -0.52705,-0.52704 -0.7643,-1.29289 -1,-2 -0.21082,-0.63245 0.4714,-1.52859 0,-2 -1.33334,-1.33333 -1,1.66667 -1,-1 0,-1 0,-2 0,-3 0,-0.33333 0.2357,-0.7643 0,-1 -0.23571,-0.2357 -0.7643,0.2357 -1,0 -0.23571,-0.2357 0.2357,-0.7643 0,-1 -0.23571,-0.2357 -0.7643,0.2357 -1,0 -0.23571,-0.2357 0,-0.66667 0,-1 0,-1.66667 0,-3.33333 0,-5 0,-0.33333 -0.23571,-0.7643 0,-1 0.4714,-0.4714 1.52859,0.47141 2,0 0,-1.4714 -0.23571,-0.7643 1,-2"
           id="path896"
           inkscape:connector-curvature="0" />
      </g>
      <path
         inkscape:connector-curvature="0"
         id="path894"
         d="m 202.7356,394.3291 c 10.88303,0 0.36476,-0.52704 8,1 0.65372,0.13075 1.33333,0 2,0 1,0.33333 1.97738,0.74435 3,1 0.32338,0.0808 0.70185,-0.14907 1,0 0.84327,0.42164 1.15672,1.57836 2,2 0.29814,0.14907 0.70185,-0.14907 1,0 0.42163,0.21082 0.57836,0.78918 1,1 0.29814,0.14907 0.76429,-0.2357 1,0 0.1,0.1 0.1,2.9 0,3 -0.47141,0.47141 -2.47141,-0.4714 -2,0 0.52704,0.52705 1.47295,0.47296 2,1 0.74535,0.74536 -1,1.94591 -1,3 0,0.47141 0.66666,0.66667 1,1 0.33333,0.33333 0.57836,0.78918 1,1 0.29814,0.14907 0.76429,-0.2357 1,0 0.2357,0.2357 -0.23571,0.7643 0,1 0.2357,0.2357 0.70185,-0.14907 1,0 0.42163,0.21082 0.57836,0.78918 1,1 0.29814,0.14907 0.70185,-0.14907 1,0 0.42163,0.21082 0.57836,0.78918 1,1 0.39649,0.19825 2.79556,-0.20443 3,0 0.4714,0.47141 -0.47141,1.5286 0,2 0.2357,0.2357 0.76429,-0.2357 1,0 0.2357,0.2357 0,0.66667 0,1 0,2 0,4 0,6 0,0.33333 0,0.66667 0,1 0,0.33333 0.2357,0.7643 0,1 -0.23571,0.2357 -0.7643,-0.2357 -1,0 -0.30965,0.30965 0.30964,4.69035 0,5 -0.23571,0.2357 -0.7643,-0.2357 -1,0 -0.47141,0.47141 0.4714,1.5286 0,2 -0.23571,0.2357 -0.7643,-0.2357 -1,0 -2.06904,2.06904 3.16176,-0.0809 -1,2 -1.37936,0.68968 -0.89448,-1.21105 -2,1 -0.29815,0.59629 0.4714,1.5286 0,2 -0.23571,0.2357 -0.7643,-0.2357 -1,0 -0.78173,0.78173 0.86982,1.73965 1,2 0.14907,0.29814 -0.23571,0.7643 0,1 0.2357,0.2357 0.76429,-0.2357 1,0 0.2357,0.2357 0,0.66667 0,1 0,0.33333 0.2357,0.7643 0,1 -0.23571,0.2357 -1,0.33333 -1,0 0,-0.33333 0.70185,-0.14907 1,0 0.42163,0.21082 0.57836,0.78918 1,1 0.29814,0.14907 0.70185,-0.14907 1,0 2.39459,1.1973 -0.6302,2 2,2 4,0 8,0 12,0 0.69554,0 4.63836,-0.18082 5,0 0.42163,0.21082 0.62287,0.71716 1,1 0.96148,0.72111 2.15016,1.15016 3,2 0.52704,0.52705 0.47295,1.47296 1,2 0.52704,0.52705 1.37982,0.58655 2,1 1.98105,-0.0998 0.47295,1.47296 1,2 0.2357,0.2357 0.76429,-0.2357 1,0 0.2357,0.2357 -0.23571,0.7643 0,1 0.52704,0.52705 1.47295,0.47296 2,1 0.2357,0.2357 -0.23571,0.7643 0,1 0.2357,0.2357 0.68377,-0.10541 1,0 0.7071,0.2357 1.29289,0.7643 2,1 0.31622,0.10541 0.76429,-0.2357 1,0 0.2357,0.2357 -0.23571,0.7643 0,1 0.2357,0.2357 0.76429,-0.2357 1,0 0.2357,0.2357 -0.23571,0.7643 0,1 0.0322,0.0322 2.75747,0 3,0 0.33333,0 0.76429,-0.2357 1,0 0.2357,0.2357 0,0.66667 0,1 0,0.33333 0,1.33333 0,1 0,-0.66667 0,-2.66667 0,-2 0,1 -0.31623,2.05132 0,3 0.1054,0.31623 0.76429,-0.2357 1,0 0.2357,0.2357 -0.14908,0.70186 0,1 0.21081,0.42164 0.78918,0.57836 1,1 0.14907,0.29814 0.33333,1 0,1 -0.33334,0 0,-0.66667 0,-1"
         style="fill:none;stroke:#5353e2;stroke-width:1px;stroke-linecap:butt;stroke-linejoin:miter;stroke-opacity:1" />
    </g>
    <path
       style="fill:none;stroke:#000000;stroke-width:1px;stroke-linecap:butt;stroke-linejoin:miter;stroke-opacity:1"
       d="m 116.48376,722.41034 67,116"
       id="path1223"
       inkscape:connector-curvature="0"
       sodipodi:nodetypes="cc" />
    <text
       xml:space="preserve"
       style="font-size:16.71760559px;font-style:normal;font-weight:normal;line-height:125%;letter-spacing:0px;word-spacing:0px;fill:#000000;fill-opacity:1;stroke:none;font-family:sans-serif"
       x="193.82397"
       y="741.34204"
       id="text1225"
       sodipodi:linespacing="125%"><tspan
         sodipodi:role="line"
         id="tspan1227"
         x="193.82397"
         y="741.34204">OSMTracker</tspan></text>
    <path
       style="fill:none;stroke:#000000;stroke-width:1px;stroke-linecap:butt;stroke-linejoin:miter;stroke-opacity:1"
       d="m 119.02869,648.67752 64,-24"
       id="path1249"
       inkscape:connector-curvature="0" />
    <text
       xml:space="preserve"
       style="font-size:17.03520393px;font-style:normal;font-weight:normal;line-height:125%;letter-spacing:0px;word-spacing:0px;fill:#000000;fill-opacity:1;stroke:none;font-family:sans-serif"
       x="222.68878"
       y="616.17542"
       id="text1255"
       sodipodi:linespacing="125%"><tspan
         sodipodi:role="line"
         id="tspan1257"
         x="222.68878"
         y="616.17542">ODK</tspan></text>
    <path
       style="fill:none;stroke:#000000;stroke-width:1px;stroke-linecap:butt;stroke-linejoin:miter;stroke-opacity:1;marker-end:url(#Arrow2Lend)"
       d="m 314.15877,481.06446 66.19282,0"
       id="path1737"
       inkscape:connector-curvature="0"
       sodipodi:nodetypes="cc" />
    <rect
       ry="5.1579781"
       rx="7.1464944"
       y="600.62378"
       x="371.8584"
       height="299.70438"
       width="345.49466"
       id="rect1771"
       style="fill:#dcdce6;fill-opacity:1;fill-rule:evenodd;stroke:#000000;stroke-width:1.12268031px;stroke-linecap:butt;stroke-linejoin:miter;stroke-opacity:1" />
    <g
       transform="translate(204,332)"
       id="g1797">
      <g
         id="g1799"
         transform="translate(0,4)">
        <rect
           style="fill:#ffffff;fill-opacity:1;stroke:#000000;stroke-width:1;stroke-miterlimit:4;stroke-opacity:1;stroke-dasharray:none"
           id="rect1801"
           width="119"
           height="99"
           x="183.57751"
           y="378.73285"
           rx="5.1782832"
           ry="3.774374" />
        <path
           inkscape:connector-curvature="0"
           id="path1803"
           d="m 190.7356,459.3291 c 5.73918,-0.33956 1.19722,-3.39445 2,-5 0.21081,-0.42164 0.78918,-0.57836 1,-1 0.29814,-0.59628 -0.47141,-1.52859 0,-2 0.2357,-0.2357 0.76429,0.2357 1,0 0.2357,-0.2357 -0.14908,-0.70186 0,-1 0.21081,-0.42164 0.78918,-0.57836 1,-1 0.14907,-0.29814 -0.23571,-0.7643 0,-1 0.2357,-0.2357 0.76429,0.2357 1,0 0.0453,-0.0453 0,-4.5285 0,-5 0,-0.33333 -0.23571,-0.7643 0,-1 0.5,-0.5 2.5,0.5 3,0 0.2357,-0.2357 -0.14908,-0.70186 0,-1 0.21081,-0.42164 0.78918,-0.57836 1,-1 0.4,-0.8 -0.4,-2.2 0,-3 0.21081,-0.42164 0.78918,-0.57836 1,-1 0.14907,-0.29814 -0.23571,-0.7643 0,-1 0.2357,-0.2357 1,-0.33333 1,0 0,0.33333 -1.33334,0 -1,0 0.66666,0 1.38101,-0.24759 2,0 4.54105,1.81642 1.55664,1.70443 5,4 1.33333,0.88889 1,-1.22222 1,1 0,0.33333 0,0.66667 0,1 0,0.33333 0.2357,0.7643 0,1 -0.23571,0.2357 -0.66667,0 -1,0 -0.33334,0 -0.66667,0 -1,0 -0.33334,0 -0.7643,-0.2357 -1,0 -0.23571,0.2357 0.14907,0.70186 0,1 -0.21082,0.42164 -0.85093,0.55279 -1,1 -0.31623,0.94868 0,2 0,3 0,0.33333 0,0.66667 0,1 0,0.33333 0.2357,1.2357 0,1 -2.52591,-2.5259 -0.38427,-1.15278 -1,-3 -0.47141,-1.41421 -1.70765,-2.53824 -2,-4 -0.19612,-0.98058 0,-2 0,-3 0,-0.33333 0,-0.66667 0,-1 0,-0.33333 -0.14908,-0.70186 0,-1 0.21081,-0.42164 0.78918,-0.57836 1,-1 0.14907,-0.29814 -0.23571,-0.7643 0,-1 0.2357,-0.2357 0.70185,0.14907 1,0 0.42163,-0.21082 0.57836,-0.78918 1,-1 0.39649,-0.19824 2.79556,0.20444 3,0 0.2357,-0.2357 -0.23571,-0.7643 0,-1 0.2357,-0.2357 0.76429,0.2357 1,0 0.2357,-0.2357 -0.14908,-0.70186 0,-1 0.42163,-0.84327 1.57836,-1.15672 2,-2 0.14907,-0.29814 -0.14908,-0.70186 0,-1 0.13275,-0.26551 2.73448,-2.86724 3,-3 0.29814,-0.14907 0.66666,0 1,0 2.15791,0 1.44509,0.83382 3,2 0.96148,0.72111 1.92503,1.46252 3,2 0.20524,0.10263 4.70303,0.099 5,0 0.7071,-0.2357 1.47295,-0.47295 2,-1 0.4714,-0.4714 -0.47141,-1.52859 0,-2 0.2357,-0.2357 0.76429,0.2357 1,0 0.47772,-0.47772 1.42649,-2.5735 1,-3 -0.23571,-0.2357 -1,0.33333 -1,0 0,-0.33333 1.2357,0.2357 1,0 -2.52591,-2.5259 -1.15279,-0.38426 -3,-1 -0.70711,-0.2357 -1.2929,-0.7643 -2,-1 -0.31623,-0.10541 -0.70186,0.14907 -1,0 -0.42164,-0.21082 -0.57837,-0.78918 -1,-1 -0.29815,-0.14907 -0.70186,0.14907 -1,0 -0.42164,-0.21082 -0.57837,-0.78918 -1,-1 -0.29815,-0.14907 -0.66667,0 -1,0 -1.37213,0 -3.23752,0.52498 -4,-1 -0.14908,-0.29814 -0.29815,-0.85093 0,-1 0.8,-0.4 2.2,0.4 3,0 1.07496,-0.53748 1.84439,-1.66982 3,-2 1.28203,-0.36629 2.69255,0.26149 4,0 0.46225,-0.0924 0.54267,-0.88567 1,-1 1.05242,-0.26311 4.56458,0 6,0 0.39531,0 4.57291,-0.21354 5,0 0.42163,0.21082 0.60776,0.73851 1,1 0.62017,0.41345 1.47295,0.47296 2,1 1.33333,1.33333 -2.12132,0.95956 1,2 0.63245,0.21082 1.36754,-0.21082 2,0 3.7071,1.2357 -1.21896,1 2,1 0.69554,0 4.63836,0.18082 5,0 0.42163,-0.21082 0.57836,-0.78918 1,-1 0.29814,-0.14907 1,-0.33333 1,0 0,0.33333 -1,0.33333 -1,0 0,-0.32244 1.72218,-1.44436 2,-2 0.14907,-0.29814 0,-0.66667 0,-1 0,-0.33333 0.2357,-0.7643 0,-1 -0.23571,-0.2357 -0.70186,0.14907 -1,0 -0.84328,-0.42164 -1.15673,-1.57836 -2,-2 -0.3965,-0.19824 -2.79557,0.20444 -3,0 -0.23571,-0.2357 0,-0.66667 0,-1 0,-0.66667 0.29814,-1.40371 0,-2 -0.14908,-0.29814 -0.7643,0.2357 -1,0 -0.23571,-0.2357 -0.23571,-0.7643 0,-1 0.2357,-0.2357 0.67661,0.0808 1,0 1.02262,-0.25565 1.97738,-0.74434 3,-1 0.32338,-0.0808 0.76429,0.2357 1,0 0.2357,-0.2357 -0.23571,-0.7643 0,-1 0.2357,-0.2357 0.70185,0.14907 1,0 0.42163,-0.21082 0.57836,-0.78918 1,-1 0.29814,-0.14907 0.66666,0 1,0 1.26545,0 3.13094,-0.30358 4,1 0.3698,0.5547 -0.21082,1.36755 0,2 0.21174,0.63523 3.02299,1.97701 2,3 -0.0322,0.0322 -2.75748,0 -3,0 -0.24253,0 -2.96784,-0.0322 -3,0 -0.47141,0.47141 0.66666,2 0,2 -0.33334,0 0,-0.66667 0,-1 0,-0.66667 0,-1.33333 0,-2 0,-0.33333 0.1054,-0.68377 0,-1 -0.23571,-0.70711 -0.33334,-1.66667 -1,-2 -0.42164,-0.21082 -0.5286,1 -1,1 -0.33334,0 0,-0.66667 0,-1 0,-0.33333 0,-0.66667 0,-1 0,-0.33333 -0.23571,-0.7643 0,-1 0.2357,-0.2357 0.66666,0 1,0 0.33333,0 0.66666,0 1,0 0.52292,0 3.73705,-0.13147 4,0 2.4714,1.2357 -0.34518,1 2,1 0.66666,0 1.33333,0 2,0 0.33333,0 0.70185,0.14907 1,0 0.42163,-0.21082 0.57836,-0.78918 1,-1 0.29814,-0.14907 0.76429,0.2357 1,0 0.2357,-0.2357 -0.23571,-0.7643 0,-1 0.2357,-0.2357 0.85092,-0.29814 1,0 4.39717,8.79436 -2.90724,-0.86085 3,8 1.18393,1.77591 2.6336,3.36033 4,5 0.30178,0.36214 0.78918,0.57836 1,1 0.27124,0.54249 -0.27363,3.72638 0,4 0.2357,0.2357 0.66666,0 1,0 0.33333,0 0.66666,0 1,0 2,0 4,0 6,0 0.66666,0 1.34628,0.13075 2,0 1.03362,-0.20672 1.97738,-0.74434 3,-1 0.32338,-0.0808 0.70185,0.14907 1,0 1.14641,-0.57321 1.391,-2.08651 2,-3 0.52297,-0.78446 1.57836,-1.15672 2,-2 0.14907,-0.29814 -0.14908,-0.70186 0,-1 0.21081,-0.42164 1,-0.52859 1,-1 0,-0.33333 -0.85093,0.29814 -1,0 -0.29815,-0.59628 0.21081,-1.36754 0,-2 -0.14908,-0.44721 -0.66667,-0.66667 -1,-1 -0.66667,-0.66667 -1.21554,-1.47702 -2,-2 -0.27735,-0.1849 -0.7643,0.2357 -1,0 -0.52705,-0.52704 -0.7643,-1.29289 -1,-2 -0.21082,-0.63245 0.4714,-1.52859 0,-2 -1.33334,-1.33333 -1,1.66667 -1,-1 0,-1 0,-2 0,-3 0,-0.33333 0.2357,-0.7643 0,-1 -0.23571,-0.2357 -0.7643,0.2357 -1,0 -0.23571,-0.2357 0.2357,-0.7643 0,-1 -0.23571,-0.2357 -0.7643,0.2357 -1,0 -0.23571,-0.2357 0,-0.66667 0,-1 0,-1.66667 0,-3.33333 0,-5 0,-0.33333 -0.23571,-0.7643 0,-1 0.4714,-0.4714 1.52859,0.47141 2,0 0,-1.4714 -0.23571,-0.7643 1,-2"
           style="fill:none;stroke:#5353e2;stroke-width:1px;stroke-linecap:butt;stroke-linejoin:miter;stroke-opacity:1" />
      </g>
      <path
         style="fill:none;stroke:#5353e2;stroke-width:1px;stroke-linecap:butt;stroke-linejoin:miter;stroke-opacity:1"
         d="m 202.7356,394.3291 c 10.88303,0 0.36476,-0.52704 8,1 0.65372,0.13075 1.33333,0 2,0 1,0.33333 1.97738,0.74435 3,1 0.32338,0.0808 0.70185,-0.14907 1,0 0.84327,0.42164 1.15672,1.57836 2,2 0.29814,0.14907 0.70185,-0.14907 1,0 0.42163,0.21082 0.57836,0.78918 1,1 0.29814,0.14907 0.76429,-0.2357 1,0 0.1,0.1 0.1,2.9 0,3 -0.47141,0.47141 -2.47141,-0.4714 -2,0 0.52704,0.52705 1.47295,0.47296 2,1 0.74535,0.74536 -1,1.94591 -1,3 0,0.47141 0.66666,0.66667 1,1 0.33333,0.33333 0.57836,0.78918 1,1 0.29814,0.14907 0.76429,-0.2357 1,0 0.2357,0.2357 -0.23571,0.7643 0,1 0.2357,0.2357 0.70185,-0.14907 1,0 0.42163,0.21082 0.57836,0.78918 1,1 0.29814,0.14907 0.70185,-0.14907 1,0 0.42163,0.21082 0.57836,0.78918 1,1 0.39649,0.19825 2.79556,-0.20443 3,0 0.4714,0.47141 -0.47141,1.5286 0,2 0.2357,0.2357 0.76429,-0.2357 1,0 0.2357,0.2357 0,0.66667 0,1 0,2 0,4 0,6 0,0.33333 0,0.66667 0,1 0,0.33333 0.2357,0.7643 0,1 -0.23571,0.2357 -0.7643,-0.2357 -1,0 -0.30965,0.30965 0.30964,4.69035 0,5 -0.23571,0.2357 -0.7643,-0.2357 -1,0 -0.47141,0.47141 0.4714,1.5286 0,2 -0.23571,0.2357 -0.7643,-0.2357 -1,0 -2.06904,2.06904 3.16176,-0.0809 -1,2 -1.37936,0.68968 -0.89448,-1.21105 -2,1 -0.29815,0.59629 0.4714,1.5286 0,2 -0.23571,0.2357 -0.7643,-0.2357 -1,0 -0.78173,0.78173 0.86982,1.73965 1,2 0.14907,0.29814 -0.23571,0.7643 0,1 0.2357,0.2357 0.76429,-0.2357 1,0 0.2357,0.2357 0,0.66667 0,1 0,0.33333 0.2357,0.7643 0,1 -0.23571,0.2357 -1,0.33333 -1,0 0,-0.33333 0.70185,-0.14907 1,0 0.42163,0.21082 0.57836,0.78918 1,1 0.29814,0.14907 0.70185,-0.14907 1,0 2.39459,1.1973 -0.6302,2 2,2 4,0 8,0 12,0 0.69554,0 4.63836,-0.18082 5,0 0.42163,0.21082 0.62287,0.71716 1,1 0.96148,0.72111 2.15016,1.15016 3,2 0.52704,0.52705 0.47295,1.47296 1,2 0.52704,0.52705 1.37982,0.58655 2,1 1.98105,-0.0998 0.47295,1.47296 1,2 0.2357,0.2357 0.76429,-0.2357 1,0 0.2357,0.2357 -0.23571,0.7643 0,1 0.52704,0.52705 1.47295,0.47296 2,1 0.2357,0.2357 -0.23571,0.7643 0,1 0.2357,0.2357 0.68377,-0.10541 1,0 0.7071,0.2357 1.29289,0.7643 2,1 0.31622,0.10541 0.76429,-0.2357 1,0 0.2357,0.2357 -0.23571,0.7643 0,1 0.2357,0.2357 0.76429,-0.2357 1,0 0.2357,0.2357 -0.23571,0.7643 0,1 0.0322,0.0322 2.75747,0 3,0 0.33333,0 0.76429,-0.2357 1,0 0.2357,0.2357 0,0.66667 0,1 0,0.33333 0,1.33333 0,1 0,-0.66667 0,-2.66667 0,-2 0,1 -0.31623,2.05132 0,3 0.1054,0.31623 0.76429,-0.2357 1,0 0.2357,0.2357 -0.14908,0.70186 0,1 0.21081,0.42164 0.78918,0.57836 1,1 0.14907,0.29814 0.33333,1 0,1 -0.33334,0 0,-0.66667 0,-1"
         id="path1805"
         inkscape:connector-curvature="0" />
    </g>
    <rect
       ry="3.774374"
       rx="5.1782832"
       y="676.73285"
       x="399.57751"
       height="99"
       width="119"
       id="rect1781"
       style="fill:#ffffff;fill-opacity:0.67772696;stroke:#000000;stroke-width:1;stroke-miterlimit:4;stroke-opacity:1;stroke-dasharray:none" />
    <path
       style="fill:none;stroke:#000000;stroke-width:1px;stroke-linecap:butt;stroke-linejoin:miter;stroke-opacity:1;marker-end:url(#marker1815)"
       d="m 301.32399,790.51213 83.93429,0"
       id="path1807"
       inkscape:connector-curvature="0"
       sodipodi:nodetypes="cc" />
    <path
       style="fill:none;stroke:#000000;stroke-width:1px;stroke-linecap:butt;stroke-linejoin:miter;stroke-opacity:1;marker-end:url(#marker1863)"
       d="m 457.8872,538.70252 -0.81919,135.41526"
       id="path1855"
       inkscape:connector-curvature="0"
       sodipodi:nodetypes="cc" />
    <rect
       ry="5.2612486"
       rx="6.8971252"
       y="674.73285"
       x="545.57751"
       height="138"
       width="158.5"
       id="rect1951"
       style="fill:#ffffff;fill-opacity:1;stroke:#000000;stroke-width:1;stroke-miterlimit:4;stroke-opacity:1;stroke-dasharray:none" />
    <g
       id="g1969"
       transform="translate(0,360)">
      <path
         transform="matrix(0.34395711,0,0,0.35669858,137.44526,213.89567)"
         d="m 241.02051,330.80298 c 0,5.79899 -4.92487,10.5 -11,10.5 -6.07513,0 -11,-4.70101 -11,-10.5 0,-5.79899 4.92487,-10.5 11,-10.5 C 236.09564,320.30298 241.02051,325.00399 241.02051,330.80298 Z"
         sodipodi:ry="10.5"
         sodipodi:rx="11"
         sodipodi:cy="330.80298"
         sodipodi:cx="230.02051"
         id="path880"
         style="fill:#dc6464;fill-opacity:1;stroke:none"
         sodipodi:type="arc" />
      <path
         sodipodi:type="arc"
         style="fill:#dc6464;fill-opacity:1;stroke:none"
         id="path884"
         sodipodi:cx="230.02051"
         sodipodi:cy="330.80298"
         sodipodi:rx="11"
         sodipodi:ry="10.5"
         d="m 241.02051,330.80298 c 0,5.79899 -4.92487,10.5 -11,10.5 -6.07513,0 -11,-4.70101 -11,-10.5 0,-5.79899 4.92487,-10.5 11,-10.5 C 236.09564,320.30298 241.02051,325.00399 241.02051,330.80298 Z"
         transform="matrix(0.34395711,0,0,0.35669858,161.44526,199.89567)" />
      <path
         transform="matrix(0.34395711,0,0,0.35669858,173.44526,171.89567)"
         d="m 241.02051,330.80298 c 0,5.79899 -4.92487,10.5 -11,10.5 -6.07513,0 -11,-4.70101 -11,-10.5 0,-5.79899 4.92487,-10.5 11,-10.5 C 236.09564,320.30298 241.02051,325.00399 241.02051,330.80298 Z"
         sodipodi:ry="10.5"
         sodipodi:rx="11"
         sodipodi:cy="330.80298"
         sodipodi:cx="230.02051"
         id="path886"
         style="fill:#dc6464;fill-opacity:1;stroke:none"
         sodipodi:type="arc" />
      <path
         sodipodi:type="arc"
         style="fill:#dc6464;fill-opacity:1;stroke:none"
         id="path888"
         sodipodi:cx="230.02051"
         sodipodi:cy="330.80298"
         sodipodi:rx="11"
         sodipodi:ry="10.5"
         d="m 241.02051,330.80298 c 0,5.79899 -4.92487,10.5 -11,10.5 -6.07513,0 -11,-4.70101 -11,-10.5 0,-5.79899 4.92487,-10.5 11,-10.5 C 236.09564,320.30298 241.02051,325.00399 241.02051,330.80298 Z"
         transform="matrix(0.34395711,0,0,0.35669858,197.44526,159.89567)" />
      <path
         transform="matrix(0.34395711,0,0,0.35669858,177.44526,217.89567)"
         d="m 241.02051,330.80298 c 0,5.79899 -4.92487,10.5 -11,10.5 -6.07513,0 -11,-4.70101 -11,-10.5 0,-5.79899 4.92487,-10.5 11,-10.5 C 236.09564,320.30298 241.02051,325.00399 241.02051,330.80298 Z"
         sodipodi:ry="10.5"
         sodipodi:rx="11"
         sodipodi:cy="330.80298"
         sodipodi:cx="230.02051"
         id="path890"
         style="fill:#dc6464;fill-opacity:1;stroke:none"
         sodipodi:type="arc" />
      <path
         sodipodi:type="arc"
         style="fill:#dc6464;fill-opacity:1;stroke:none"
         id="path892"
         sodipodi:cx="230.02051"
         sodipodi:cy="330.80298"
         sodipodi:rx="11"
         sodipodi:ry="10.5"
         d="m 241.02051,330.80298 c 0,5.79899 -4.92487,10.5 -11,10.5 -6.07513,0 -11,-4.70101 -11,-10.5 0,-5.79899 4.92487,-10.5 11,-10.5 C 236.09564,320.30298 241.02051,325.00399 241.02051,330.80298 Z"
         transform="matrix(0.34395711,0,0,0.35669858,129.44526,175.89567)" />
      <path
         sodipodi:type="arc"
         style="fill:#dc6464;fill-opacity:1;stroke:none"
         id="path1965"
         sodipodi:cx="230.02051"
         sodipodi:cy="330.80298"
         sodipodi:rx="11"
         sodipodi:ry="10.5"
         d="m 241.02051,330.80298 c 0,5.79899 -4.92487,10.5 -11,10.5 -6.07513,0 -11,-4.70101 -11,-10.5 0,-5.79899 4.92487,-10.5 11,-10.5 C 236.09564,320.30298 241.02051,325.00399 241.02051,330.80298 Z"
         transform="matrix(0.34395711,0,0,0.35669858,179.44526,175.89567)" />
      <path
         sodipodi:type="arc"
         style="fill:#dc6464;fill-opacity:1;stroke:none"
         id="path1967"
         sodipodi:cx="230.02051"
         sodipodi:cy="330.80298"
         sodipodi:rx="11"
         sodipodi:ry="10.5"
         d="m 241.02051,330.80298 c 0,5.79899 -4.92487,10.5 -11,10.5 -6.07513,0 -11,-4.70101 -11,-10.5 0,-5.79899 4.92487,-10.5 11,-10.5 C 236.09564,320.30298 241.02051,325.00399 241.02051,330.80298 Z"
         transform="matrix(0.34395711,0,0,0.35669858,133.44526,215.89567)" />
    </g>
    <g
       id="g1979"
       transform="translate(216,416)">
      <path
         sodipodi:type="arc"
         style="fill:#dc6464;fill-opacity:1;stroke:none"
         id="path1981"
         sodipodi:cx="230.02051"
         sodipodi:cy="330.80298"
         sodipodi:rx="11"
         sodipodi:ry="10.5"
         d="m 241.02051,330.80298 c 0,5.79899 -4.92487,10.5 -11,10.5 -6.07513,0 -11,-4.70101 -11,-10.5 0,-5.79899 4.92487,-10.5 11,-10.5 C 236.09564,320.30298 241.02051,325.00399 241.02051,330.80298 Z"
         transform="matrix(0.34395711,0,0,0.35669858,137.44526,213.89567)" />
      <path
         transform="matrix(0.34395711,0,0,0.35669858,161.44526,199.89567)"
         d="m 241.02051,330.80298 c 0,5.79899 -4.92487,10.5 -11,10.5 -6.07513,0 -11,-4.70101 -11,-10.5 0,-5.79899 4.92487,-10.5 11,-10.5 C 236.09564,320.30298 241.02051,325.00399 241.02051,330.80298 Z"
         sodipodi:ry="10.5"
         sodipodi:rx="11"
         sodipodi:cy="330.80298"
         sodipodi:cx="230.02051"
         id="path1983"
         style="fill:#dc6464;fill-opacity:1;stroke:none"
         sodipodi:type="arc" />
      <path
         sodipodi:type="arc"
         style="fill:#dc6464;fill-opacity:1;stroke:none"
         id="path1985"
         sodipodi:cx="230.02051"
         sodipodi:cy="330.80298"
         sodipodi:rx="11"
         sodipodi:ry="10.5"
         d="m 241.02051,330.80298 c 0,5.79899 -4.92487,10.5 -11,10.5 -6.07513,0 -11,-4.70101 -11,-10.5 0,-5.79899 4.92487,-10.5 11,-10.5 C 236.09564,320.30298 241.02051,325.00399 241.02051,330.80298 Z"
         transform="matrix(0.34395711,0,0,0.35669858,173.44526,171.89567)" />
      <path
         transform="matrix(0.34395711,0,0,0.35669858,197.44526,159.89567)"
         d="m 241.02051,330.80298 c 0,5.79899 -4.92487,10.5 -11,10.5 -6.07513,0 -11,-4.70101 -11,-10.5 0,-5.79899 4.92487,-10.5 11,-10.5 C 236.09564,320.30298 241.02051,325.00399 241.02051,330.80298 Z"
         sodipodi:ry="10.5"
         sodipodi:rx="11"
         sodipodi:cy="330.80298"
         sodipodi:cx="230.02051"
         id="path1987"
         style="fill:#dc6464;fill-opacity:1;stroke:none"
         sodipodi:type="arc" />
      <path
         sodipodi:type="arc"
         style="fill:#dc6464;fill-opacity:1;stroke:none"
         id="path1989"
         sodipodi:cx="230.02051"
         sodipodi:cy="330.80298"
         sodipodi:rx="11"
         sodipodi:ry="10.5"
         d="m 241.02051,330.80298 c 0,5.79899 -4.92487,10.5 -11,10.5 -6.07513,0 -11,-4.70101 -11,-10.5 0,-5.79899 4.92487,-10.5 11,-10.5 C 236.09564,320.30298 241.02051,325.00399 241.02051,330.80298 Z"
         transform="matrix(0.34395711,0,0,0.35669858,177.44526,217.89567)" />
      <path
         transform="matrix(0.34395711,0,0,0.35669858,129.44526,175.89567)"
         d="m 241.02051,330.80298 c 0,5.79899 -4.92487,10.5 -11,10.5 -6.07513,0 -11,-4.70101 -11,-10.5 0,-5.79899 4.92487,-10.5 11,-10.5 C 236.09564,320.30298 241.02051,325.00399 241.02051,330.80298 Z"
         sodipodi:ry="10.5"
         sodipodi:rx="11"
         sodipodi:cy="330.80298"
         sodipodi:cx="230.02051"
         id="path1991"
         style="fill:#dc6464;fill-opacity:1;stroke:none"
         sodipodi:type="arc" />
      <path
         transform="matrix(0.34395711,0,0,0.35669858,179.44526,175.89567)"
         d="m 241.02051,330.80298 c 0,5.79899 -4.92487,10.5 -11,10.5 -6.07513,0 -11,-4.70101 -11,-10.5 0,-5.79899 4.92487,-10.5 11,-10.5 C 236.09564,320.30298 241.02051,325.00399 241.02051,330.80298 Z"
         sodipodi:ry="10.5"
         sodipodi:rx="11"
         sodipodi:cy="330.80298"
         sodipodi:cx="230.02051"
         id="path1993"
         style="fill:#dc6464;fill-opacity:1;stroke:none"
         sodipodi:type="arc" />
      <path
         transform="matrix(0.34395711,0,0,0.35669858,133.44526,215.89567)"
         d="m 241.02051,330.80298 c 0,5.79899 -4.92487,10.5 -11,10.5 -6.07513,0 -11,-4.70101 -11,-10.5 0,-5.79899 4.92487,-10.5 11,-10.5 C 236.09564,320.30298 241.02051,325.00399 241.02051,330.80298 Z"
         sodipodi:ry="10.5"
         sodipodi:rx="11"
         sodipodi:cy="330.80298"
         sodipodi:cx="230.02051"
         id="path1995"
         style="fill:#dc6464;fill-opacity:1;stroke:none"
         sodipodi:type="arc" />
    </g>
    <g
       id="g2007"
       transform="translate(0,358)">
      <path
         inkscape:connector-curvature="0"
         id="path1953"
         d="m 555.17957,435.87381 13.5,-18 25.5,-18.5 23,2 11,-22.5 28.5,-10.5 19.5,-0.5 14.5,-34"
         style="fill:none;stroke:#214e2a;stroke-width:1px;stroke-linecap:butt;stroke-linejoin:miter;stroke-opacity:1" />
      <path
         inkscape:connector-curvature="0"
         id="path1955"
         d="m 565.88916,330.14844 26,8.5 5.5,14 26.5,9 3.5,17.5 7,25.5 30,4.5 11.5,18 13,6.5"
         style="fill:none;stroke:#214e2a;stroke-width:1px;stroke-linecap:butt;stroke-linejoin:miter;stroke-opacity:1" />
      <path
         sodipodi:type="arc"
         style="fill:#ffffff;fill-opacity:1;stroke:#214e2a;stroke-width:3.58236408;stroke-miterlimit:4;stroke-opacity:1;stroke-dasharray:none"
         id="path1963"
         sodipodi:cx="230.02051"
         sodipodi:cy="330.80298"
         sodipodi:rx="11"
         sodipodi:ry="10.5"
         d="m 241.02051,330.80298 c 0,5.79899 -4.92487,10.5 -11,10.5 -6.07513,0 -11,-4.70101 -11,-10.5 0,-5.79899 4.92487,-10.5 11,-10.5 C 236.09564,320.30298 241.02051,325.00399 241.02051,330.80298 Z"
         transform="matrix(0.27272727,0,0,0.28571429,564.79606,285.87282)" />
      <path
         transform="matrix(0.27272727,0,0,0.28571429,530.79606,245.87282)"
         d="m 241.02051,330.80298 c 0,5.79899 -4.92487,10.5 -11,10.5 -6.07513,0 -11,-4.70101 -11,-10.5 0,-5.79899 4.92487,-10.5 11,-10.5 C 236.09564,320.30298 241.02051,325.00399 241.02051,330.80298 Z"
         sodipodi:ry="10.5"
         sodipodi:rx="11"
         sodipodi:cy="330.80298"
         sodipodi:cx="230.02051"
         id="path1997"
         style="fill:#ffffff;fill-opacity:1;stroke:#214e2a;stroke-width:3.58236408;stroke-miterlimit:4;stroke-opacity:1;stroke-dasharray:none"
         sodipodi:type="arc" />
      <path
         sodipodi:type="arc"
         style="fill:#ffffff;fill-opacity:1;stroke:#214e2a;stroke-width:3.58236408;stroke-miterlimit:4;stroke-opacity:1;stroke-dasharray:none"
         id="path1999"
         sodipodi:cx="230.02051"
         sodipodi:cy="330.80298"
         sodipodi:rx="11"
         sodipodi:ry="10.5"
         d="m 241.02051,330.80298 c 0,5.79899 -4.92487,10.5 -11,10.5 -6.07513,0 -11,-4.70101 -11,-10.5 0,-5.79899 4.92487,-10.5 11,-10.5 C 236.09564,320.30298 241.02051,325.00399 241.02051,330.80298 Z"
         transform="matrix(0.27272727,0,0,0.28571429,612.79606,273.87282)" />
      <path
         transform="matrix(0.27272727,0,0,0.28571429,626.79606,239.87282)"
         d="m 241.02051,330.80298 c 0,5.79899 -4.92487,10.5 -11,10.5 -6.07513,0 -11,-4.70101 -11,-10.5 0,-5.79899 4.92487,-10.5 11,-10.5 C 236.09564,320.30298 241.02051,325.00399 241.02051,330.80298 Z"
         sodipodi:ry="10.5"
         sodipodi:rx="11"
         sodipodi:cy="330.80298"
         sodipodi:cx="230.02051"
         id="path2001"
         style="fill:#ffffff;fill-opacity:1;stroke:#214e2a;stroke-width:3.58236408;stroke-miterlimit:4;stroke-opacity:1;stroke-dasharray:none"
         sodipodi:type="arc" />
      <path
         sodipodi:type="arc"
         style="fill:#ffffff;fill-opacity:1;stroke:#214e2a;stroke-width:3.58236408;stroke-miterlimit:4;stroke-opacity:1;stroke-dasharray:none"
         id="path2003"
         sodipodi:cx="230.02051"
         sodipodi:cy="330.80298"
         sodipodi:rx="11"
         sodipodi:ry="10.5"
         d="m 241.02051,330.80298 c 0,5.79899 -4.92487,10.5 -11,10.5 -6.07513,0 -11,-4.70101 -11,-10.5 0,-5.79899 4.92487,-10.5 11,-10.5 C 236.09564,320.30298 241.02051,325.00399 241.02051,330.80298 Z"
         transform="matrix(0.27272727,0,0,0.28571429,612.79606,331.87282)" />
      <path
         transform="matrix(0.27272727,0,0,0.28571429,492.79606,339.87282)"
         d="m 241.02051,330.80298 c 0,5.79899 -4.92487,10.5 -11,10.5 -6.07513,0 -11,-4.70101 -11,-10.5 0,-5.79899 4.92487,-10.5 11,-10.5 C 236.09564,320.30298 241.02051,325.00399 241.02051,330.80298 Z"
         sodipodi:ry="10.5"
         sodipodi:rx="11"
         sodipodi:cy="330.80298"
         sodipodi:cx="230.02051"
         id="path2005"
         style="fill:#ffffff;fill-opacity:1;stroke:#214e2a;stroke-width:3.58236408;stroke-miterlimit:4;stroke-opacity:1;stroke-dasharray:none"
         sodipodi:type="arc" />
    </g>
    <path
       style="fill:none;stroke:#000000;stroke-width:1.5;stroke-linecap:butt;stroke-linejoin:miter;stroke-miterlimit:4;stroke-opacity:1;stroke-dasharray:none;marker-end:url(#marker2025)"
       d="m 525.33582,744.74766 13.5,0.25"
       id="path2017"
       inkscape:connector-curvature="0"
       sodipodi:nodetypes="cc" />
    <text
       xml:space="preserve"
       style="font-size:25.79146576px;font-style:normal;font-weight:normal;line-height:125%;letter-spacing:0px;word-spacing:0px;fill:#000000;fill-opacity:1;stroke:none;font-family:sans-serif"
       x="381.88062"
       y="627.3512"
       id="text2101"
       sodipodi:linespacing="125%"><tspan
         sodipodi:role="line"
         id="tspan2103"
         x="381.88062"
         y="627.3512">JOSM</tspan></text>
    <path
       style="fill:none;stroke:#000000;stroke-width:1px;stroke-linecap:butt;stroke-linejoin:miter;stroke-opacity:1;marker-end:url(#marker2107)"
       d="M 614.76064,673.79295 C 612.71944,535.61668 584.88607,474.08927 533.88323,481.41659"
       id="path2105"
       inkscape:connector-curvature="0"
       sodipodi:nodetypes="cc" />
    <path
       style="fill:none;stroke:#000000;stroke-width:1px;stroke-linecap:butt;stroke-linejoin:miter;stroke-opacity:1;marker-start:url(#Arrow1Lstart);marker-end:url(#marker2527)"
       d="M 205.40759,169.58446 C 90.077297,222.44102 126.85614,290.5085 182.32861,360.44534"
       id="path2501"
       inkscape:connector-curvature="0"
       transform="translate(0,308.26772)"
       sodipodi:nodetypes="cc" />
    <text
       xml:space="preserve"
       style="font-size:20.80145264px;font-style:normal;font-weight:normal;line-height:125%;letter-spacing:0px;word-spacing:0px;fill:#000000;fill-opacity:1;stroke:none;font-family:sans-serif"
       x="404.67813"
       y="526.37524"
       id="text273"
       sodipodi:linespacing="125%"
       transform="scale(1.0499627,0.95241478)"><tspan
         sodipodi:role="line"
         id="tspan275"
         x="404.67813"
         y="526.37524">(Fork)</tspan></text>
  </g>
</svg>
