<?xml version="1.0" encoding="UTF-8" standalone="no"?>
<!-- Created with Inkscape (http://www.inkscape.org/) -->

<svg
   xmlns:dc="http://purl.org/dc/elements/1.1/"
   xmlns:cc="http://creativecommons.org/ns#"
   xmlns:rdf="http://www.w3.org/1999/02/22-rdf-syntax-ns#"
   xmlns:svg="http://www.w3.org/2000/svg"
   xmlns="http://www.w3.org/2000/svg"
   xmlns:sodipodi="http://sodipodi.sourceforge.net/DTD/sodipodi-0.dtd"
   xmlns:inkscape="http://www.inkscape.org/namespaces/inkscape"
   width="1052.3622"
   height="744.09448"
   id="svg2"
   version="1.1"
   inkscape:version="0.48.4 r9939"
   sodipodi:docname="np-electrification-nodes.svg"
   inkscape:export-filename="/home/cjn/src/docs/diagrams/np-electrification-nodes.png"
   inkscape:export-xdpi="90"
   inkscape:export-ydpi="90">
  <defs
     id="defs4" />
  <sodipodi:namedview
     id="base"
     pagecolor="#ffffff"
     bordercolor="#666666"
     borderopacity="1.0"
     inkscape:pageopacity="0.0"
     inkscape:pageshadow="2"
     inkscape:zoom="1.4"
     inkscape:cx="804.0637"
     inkscape:cy="466.32344"
     inkscape:document-units="px"
     inkscape:current-layer="layer1"
     showgrid="false"
     inkscape:window-width="2558"
     inkscape:window-height="1422"
     inkscape:window-x="0"
     inkscape:window-y="16"
     inkscape:window-maximized="0" />
  <metadata
     id="metadata7">
    <rdf:RDF>
      <cc:Work
         rdf:about="">
        <dc:format>image/svg+xml</dc:format>
        <dc:type
           rdf:resource="http://purl.org/dc/dcmitype/StillImage" />
        <dc:title></dc:title>
      </cc:Work>
    </rdf:RDF>
  </metadata>
  <g
     inkscape:label="Layer 1"
     inkscape:groupmode="layer"
     id="layer1"
     transform="translate(0,-308.2677)">
    <path
       sodipodi:type="arc"
       style="fill:#ffffff;fill-opacity:1;stroke:#21244e;stroke-width:0.88397998;stroke-miterlimit:4;stroke-opacity:1;stroke-dasharray:none"
       id="path2985"
       sodipodi:cx="139.90613"
       sodipodi:cy="228.07771"
       sodipodi:rx="72.225906"
       sodipodi:ry="72.73098"
       d="m 212.13203,228.07771 a 72.225906,72.73098 0 1 1 -144.451808,0 72.225906,72.73098 0 1 1 144.451808,0 z"
       transform="matrix(1.7062936,0,0,1.6875,-53.86303,250.79312)" />
    <path
       style="fill:#1c8129;fill-opacity:1;stroke:#21244e;stroke-width:1.5;stroke-miterlimit:4;stroke-opacity:1;stroke-dasharray:none"
       d="m 109.10009,632.16444 -15.125001,10.21973 2,1.34678 0,14.65621 26.250001,0 0,-14.65621 2,-1.34678 -15.125,-10.21973 z"
       id="rect3757"
       inkscape:connector-curvature="0" />
    <path
       style="fill:#1c8129;fill-opacity:1;stroke:#21244e;stroke-width:1.5;stroke-miterlimit:4;stroke-opacity:1;stroke-dasharray:none"
       d="m 140.4112,564.47913 -15.125,10.21973 2,1.34678 0,14.65621 26.25,0 0,-14.65621 2,-1.34678 -15.125,-10.21973 z"
       id="rect3757-3"
       inkscape:connector-curvature="0" />
    <path
       style="fill:#1c8129;fill-opacity:1;stroke:#21244e;stroke-width:1.5;stroke-miterlimit:4;stroke-opacity:1;stroke-dasharray:none"
       d="m 191.92898,638.22026 -15.125,10.21973 2,1.34678 0,14.65621 26.25,0 0,-14.65621 2,-1.34678 -15.125,-10.21973 z"
       id="rect3757-6"
       inkscape:connector-curvature="0" />
    <path
       sodipodi:type="arc"
       style="fill:#ffffff;fill-opacity:1;stroke:#21244e;stroke-width:0.90441418;stroke-miterlimit:4;stroke-opacity:1;stroke-dasharray:none"
       id="path2985-8"
       sodipodi:cx="139.90613"
       sodipodi:cy="228.07771"
       sodipodi:rx="72.225906"
       sodipodi:ry="72.73098"
       d="m 212.13203,228.07771 a 72.225906,72.73098 0 1 1 -144.451808,0 72.225906,72.73098 0 1 1 144.451808,0 z"
       transform="matrix(1.6573426,0,0,1.6597223,269.60745,253.84289)" />
    <path
       style="fill:#dc2433;fill-opacity:1;stroke:#21244e;stroke-width:1.50000012;stroke-miterlimit:4;stroke-opacity:1;stroke-dasharray:none"
       d="m 456.52803,573.71264 -26.23668,18.8808 3.46932,2.48815 0,27.07712 45.53473,0 0,-27.07712 3.46931,-2.48815 -26.23668,-18.8808 z"
       id="rect3757-6-9"
       inkscape:connector-curvature="0" />
    <path
       style="fill:#1c8129;fill-opacity:1;stroke:#21244e;stroke-width:1.5;stroke-miterlimit:4;stroke-opacity:1;stroke-dasharray:none"
       d="m 531.27932,634.32179 -15.125,10.21973 2,1.34678 0,14.65621 26.25,0 0,-14.65621 2,-1.34678 -15.125,-10.21973 z"
       id="rect3757-6-1"
       inkscape:connector-curvature="0" />
    <path
       style="fill:#1c8129;fill-opacity:1;stroke:#21244e;stroke-width:1.5;stroke-miterlimit:4;stroke-opacity:1;stroke-dasharray:none"
       d="m 441.37575,649.47408 -15.125,10.21973 2,1.34678 0,14.65621 26.25,0 0,-14.65621 2,-1.34678 -15.125,-10.21973 z"
       id="rect3757-6-0"
       inkscape:connector-curvature="0" />
    <path
       style="fill:#1c8129;fill-opacity:1;stroke:#21244e;stroke-width:1.5;stroke-miterlimit:4;stroke-opacity:1;stroke-dasharray:none"
       d="m 538.35039,567.65172 -15.125,10.21973 2,1.34678 0,14.65621 26.25,0 0,-14.65621 2,-1.34678 -15.125,-10.21973 z"
       id="rect3757-6-7"
       inkscape:connector-curvature="0" />
    <path
       style="fill:#1c8129;fill-opacity:1;stroke:#21244e;stroke-width:1.5;stroke-miterlimit:4;stroke-opacity:1;stroke-dasharray:none"
       d="m 501.9849,686.84972 -15.125,10.21973 2,1.34678 0,14.65621 26.25,0 0,-14.65621 2,-1.34678 -15.125,-10.21973 z"
       id="rect3757-6-5"
       inkscape:connector-curvature="0" />
    <rect
       style="fill:#1d00b8;fill-opacity:1;stroke:#21244e;stroke-width:1.5;stroke-miterlimit:4;stroke-opacity:1;stroke-dasharray:none"
       id="rect3887"
       width="18.182745"
       height="19.192898"
       x="490.87323"
       y="611.06763" />
    <path
       style="fill:none;stroke:#000000;stroke-width:0.99999994px;stroke-linecap:butt;stroke-linejoin:miter;stroke-opacity:1"
       d="m 490.36816,630.5131 -34.34519,29.29443 0.83769,-1.12671"
       id="path3889"
       inkscape:connector-curvature="0" />
    <path
       style="fill:none;stroke:#000000;stroke-width:0.99999988px;stroke-linecap:butt;stroke-linejoin:miter;stroke-opacity:1"
       d="M 491.12575,623.18951 478.2463,613.84559"
       id="path3891"
       inkscape:connector-curvature="0" />
    <path
       style="fill:none;stroke:#000000;stroke-width:0.99999994px;stroke-linecap:butt;stroke-linejoin:miter;stroke-opacity:1"
       d="m 509.05597,625.20979 24.4962,-30.80965"
       id="path3893"
       inkscape:connector-curvature="0" />
    <path
       style="fill:none;stroke:#000000;stroke-width:1px;stroke-linecap:butt;stroke-linejoin:miter;stroke-opacity:1"
       d="m 508.55089,630.26055 9.34391,12.62691"
       id="path3895"
       inkscape:connector-curvature="0" />
    <path
       style="fill:none;stroke:#000000;stroke-width:1px;stroke-linecap:butt;stroke-linejoin:miter;stroke-opacity:1"
       d="m 519.91511,660.56513 -10.35407,31.31473"
       id="path3897"
       inkscape:connector-curvature="0" />
    <path
       sodipodi:type="arc"
       style="fill:#ffffff;fill-opacity:1;stroke:#21244e;stroke-width:0.90441418;stroke-miterlimit:4;stroke-opacity:1;stroke-dasharray:none"
       id="path2985-8-1"
       sodipodi:cx="139.90613"
       sodipodi:cy="228.07771"
       sodipodi:rx="72.225906"
       sodipodi:ry="72.73098"
       d="m 212.13203,228.07771 a 72.225906,72.73098 0 1 1 -144.451808,0 72.225906,72.73098 0 1 1 144.451808,0 z"
       transform="matrix(1.6573426,0,0,1.6597223,579.27047,256.24509)" />
    <path
       style="fill:#dc2433;fill-opacity:1;stroke:#21244e;stroke-width:1.50000012;stroke-miterlimit:4;stroke-opacity:1;stroke-dasharray:none"
       d="m 764.76248,574.68627 -26.23668,18.8808 3.46932,2.48815 0,27.07712 45.53473,0 0,-27.07712 3.46931,-2.48815 -26.23668,-18.8808 z"
       id="rect3757-6-9-5"
       inkscape:connector-curvature="0" />
    <path
       style="fill:#1c8129;fill-opacity:1;stroke:#21244e;stroke-width:1.5;stroke-miterlimit:4;stroke-opacity:1;stroke-dasharray:none"
       d="m 830.22805,697.79541 -15.125,10.21973 2,1.34678 0,14.65621 26.25,0 0,-14.65621 2,-1.34678 -15.125,-10.21973 z"
       id="rect3757-6-1-0"
       inkscape:connector-curvature="0" />
    <path
       style="fill:#1c8129;fill-opacity:1;stroke:#21244e;stroke-width:1.5;stroke-miterlimit:4;stroke-opacity:1;stroke-dasharray:none"
       d="m 767.82448,638.30485 -15.125,10.21973 2,1.34678 0,14.65621 26.25,0 0,-14.65621 2,-1.34678 -15.125,-10.21973 z"
       id="rect3757-6-0-3"
       inkscape:connector-curvature="0" />
    <path
       style="fill:#1c8129;fill-opacity:1;stroke:#21244e;stroke-width:1.5;stroke-miterlimit:4;stroke-opacity:1;stroke-dasharray:none"
       d="m 836.58484,581.12535 -15.125,10.21973 2,1.34678 0,14.65621 26.25,0 0,-14.65621 2,-1.34678 -15.125,-10.21973 z"
       id="rect3757-6-7-8"
       inkscape:connector-curvature="0" />
    <path
       style="fill:#1c8129;fill-opacity:1;stroke:#21244e;stroke-width:1.5;stroke-miterlimit:4;stroke-opacity:1;stroke-dasharray:none"
       d="m 775.93363,695.32335 -15.125,10.21973 2,1.34678 0,14.65621 26.25,0 0,-14.65621 2,-1.34678 -15.125,-10.21973 z"
       id="rect3757-6-5-8"
       inkscape:connector-curvature="0" />
    <rect
       style="fill:#1d00b8;fill-opacity:1;stroke:#21244e;stroke-width:1.5;stroke-miterlimit:4;stroke-opacity:1;stroke-dasharray:none"
       id="rect3887-8"
       width="18.182745"
       height="19.192898"
       x="800.53625"
       y="613.46985" />
    <path
       style="fill:none;stroke:#000000;stroke-width:0.99999994px;stroke-linecap:butt;stroke-linejoin:miter;stroke-opacity:1"
       d="m 800.03118,632.9153 -18.27376,14.65158 0.4457,-0.56353"
       id="path3889-0"
       inkscape:connector-curvature="0" />
    <path
       style="fill:none;stroke:#000000;stroke-width:0.99999988px;stroke-linecap:butt;stroke-linejoin:miter;stroke-opacity:1"
       d="m 800.78877,625.59171 -12.87945,-9.34392"
       id="path3891-8"
       inkscape:connector-curvature="0" />
    <path
       style="fill:none;stroke:#000000;stroke-width:0.99999988px;stroke-linecap:butt;stroke-linejoin:miter;stroke-opacity:1"
       d="m 818.71898,627.612 11.9962,-20.09536"
       id="path3893-0"
       inkscape:connector-curvature="0" />
    <path
       style="fill:none;stroke:#000000;stroke-width:1px;stroke-linecap:butt;stroke-linejoin:miter;stroke-opacity:1"
       d="m 818.21391,632.66275 9.34391,12.62691"
       id="path3895-0"
       inkscape:connector-curvature="0" />
    <path
       style="fill:none;stroke:#000000;stroke-width:1px;stroke-linecap:butt;stroke-linejoin:miter;stroke-opacity:1"
       d="m 811.36388,686.53875 -22.49693,17.02901"
       id="path3897-0"
       inkscape:connector-curvature="0" />
    <path
       style="fill:#dc2433;fill-opacity:1;stroke:#21244e;stroke-width:1.50000012;stroke-miterlimit:4;stroke-opacity:1;stroke-dasharray:none"
       d="m 888.92857,592.42486 -26.23668,18.8808 3.46932,2.48815 0,27.07712 45.53473,0 0,-27.07712 3.46931,-2.48815 -26.23668,-18.8808 z"
       id="rect3757-6-9-5-3"
       inkscape:connector-curvature="0" />
    <path
       style="fill:#1c8129;fill-opacity:1;stroke:#21244e;stroke-width:1.5;stroke-miterlimit:4;stroke-opacity:1;stroke-dasharray:none"
       d="m 717.5,612.46511 -15.125,10.21973 2,1.34678 0,14.65621 26.25,0 0,-14.65621 2,-1.34678 -15.125,-10.21973 z"
       id="rect3757-6-0-3-6"
       inkscape:connector-curvature="0" />
    <path
       style="fill:#dc2433;fill-opacity:1;stroke:#21244e;stroke-width:1.50000012;stroke-miterlimit:4;stroke-opacity:1;stroke-dasharray:none"
       d="m 834.64286,639.56771 -26.23668,18.8808 3.46932,2.48815 0,27.07712 45.53473,0 0,-27.07712 3.46931,-2.48815 -26.23668,-18.8808 z"
       id="rect3757-6-9-5-3-1"
       inkscape:connector-curvature="0" />
    <path
       style="fill:none;stroke:#000000;stroke-width:1px;stroke-linecap:butt;stroke-linejoin:miter;stroke-opacity:1"
       d="M 741.78572,305.52305 730,312.30877"
       id="path4004"
       inkscape:connector-curvature="0"
       transform="translate(0,308.2677)" />
    <path
       style="fill:none;stroke:#000000;stroke-width:1px;stroke-linecap:butt;stroke-linejoin:miter;stroke-opacity:1"
       d="m 818.92857,319.09448 47.14286,-0.35714"
       id="path4006"
       inkscape:connector-curvature="0"
       transform="translate(0,308.2677)" />
    <path
       style="fill:none;stroke:#000000;stroke-width:0.99999994px;stroke-linecap:butt;stroke-linejoin:miter;stroke-opacity:1"
       d="m 789.28569,712.00504 28.21428,0.71428"
       id="path4008"
       inkscape:connector-curvature="0" />
    <path
       style="fill:none;stroke:#f04e10;stroke-width:3;stroke-linecap:butt;stroke-linejoin:miter;stroke-opacity:1;stroke-miterlimit:4;stroke-dasharray:none"
       d="M 85.714286,76.237339 291.42857,101.95162 442.85714,62.66591 680,49.808767 857.14286,51.951625 990,111.95162"
       id="path4010"
       inkscape:connector-curvature="0"
       transform="translate(0,308.2677)" />
    <path
       style="fill:#f04e10;stroke:#f04e10;stroke-width:3;stroke-linecap:butt;stroke-linejoin:miter;stroke-miterlimit:4;stroke-opacity:1;stroke-dasharray:none;fill-opacity:1"
       d="M 444.28573,371.6479 375.7143,323.79075"
       id="path4012"
       inkscape:connector-curvature="0" />
    <path
       style="fill:#f04e10;fill-opacity:1;stroke:#f04e10;stroke-width:2.99999952;stroke-linecap:butt;stroke-linejoin:miter;stroke-miterlimit:4;stroke-opacity:1;stroke-dasharray:none"
       d="M 807.05241,612.63076 806.1612,359.20756"
       id="path4012-9"
       inkscape:connector-curvature="0" />
    <flowRoot
       xml:space="preserve"
       id="flowRoot4034"
       style="font-size:20px;font-style:normal;font-variant:normal;font-weight:normal;font-stretch:normal;text-align:start;line-height:125%;letter-spacing:0px;word-spacing:0px;writing-mode:lr-tb;text-anchor:start;fill:#000000;fill-opacity:1;stroke:none;font-family:Sans;-inkscape-font-specification:Sans"
       transform="translate(-40,314.69627)"><flowRegion
         id="flowRegion4036"><rect
           id="rect4038"
           width="234.28572"
           height="30.714285"
           x="493.57144"
           y="18.380196" /></flowRegion><flowPara
         id="flowPara4040">Existing Grid</flowPara></flowRoot>    <flowRoot
       xml:space="preserve"
       id="flowRoot4042"
       style="font-size:20px;font-style:normal;font-variant:normal;font-weight:normal;font-stretch:normal;text-align:start;line-height:125%;letter-spacing:0px;word-spacing:0px;writing-mode:lr-tb;text-anchor:start;fill:#000000;fill-opacity:1;stroke:none;font-family:Sans;-inkscape-font-specification:Sans"
       transform="translate(8.5714286,592.55341)"><flowRegion
         id="flowRegion4044"><rect
           id="rect4046"
           width="97.14286"
           height="30.714285"
           x="132.85715"
           y="169.09448" /></flowRegion><flowPara
         id="flowPara4048">Off-Grid</flowPara></flowRoot>    <flowRoot
       xml:space="preserve"
       id="flowRoot4077"
       style="font-size:20px;font-style:normal;font-variant:normal;font-weight:normal;font-stretch:normal;text-align:start;line-height:125%;letter-spacing:0px;word-spacing:0px;writing-mode:lr-tb;text-anchor:start;fill:#000000;fill-opacity:1;stroke:none;font-family:Sans;-inkscape-font-specification:Sans"
       transform="translate(0,308.2677)"><flowRegion
         id="flowRegion4079"><rect
           id="rect4081"
           width="92.85714"
           height="21.428572"
           x="457.14285"
           y="177.66591" /></flowRegion><flowPara
         id="flowPara4083">MinMini Grid</flowPara><flowPara
         id="flowPara4085" /></flowRoot>    <flowRoot
       xml:space="preserve"
       id="flowRoot4087"
       style="font-size:20px;font-style:normal;font-variant:normal;font-weight:normal;font-stretch:normal;text-align:start;line-height:125%;letter-spacing:0px;word-spacing:0px;writing-mode:lr-tb;text-anchor:start;fill:#000000;fill-opacity:1;stroke:none;font-family:Sans;-inkscape-font-specification:Sans"
       transform="translate(23.571428,588.2677)"><flowRegion
         id="flowRegion4089"><rect
           id="rect4091"
           width="146.42857"
           height="28.571428"
           x="429.28571"
           y="174.09448" /></flowRegion><flowPara
         id="flowPara4093">Mini-Grid</flowPara></flowRoot>    <flowRoot
       xml:space="preserve"
       id="flowRoot4095"
       style="font-size:20px;font-style:normal;font-variant:normal;font-weight:normal;font-stretch:normal;text-align:start;line-height:125%;letter-spacing:0px;word-spacing:0px;writing-mode:lr-tb;text-anchor:start;fill:#000000;fill-opacity:1;stroke:none;font-family:Sans;-inkscape-font-specification:Sans"
       transform="translate(49.285714,313.2677)"><flowRegion
         id="flowRegion4097"><rect
           id="rect4099"
           width="148.57143"
           height="35"
           x="739.28571"
           y="451.23734" /></flowRegion><flowPara
         id="flowPara4103">Grid</flowPara></flowRoot>  </g>
</svg>
